<svg width="87" height="87" viewBox="0 0 87 87" fill="none" xmlns="http://www.w3.org/2000/svg">
<path d="M44.5748 60.8434C39.4304 66.0412 31.0467 66.0845 25.8489 60.9401C20.6511 55.7957 20.6078 47.4119 25.7522 42.2141C28.9393 38.9939 33.3699 37.753 37.5159 38.4975C38.0908 37.0921 38.854 35.7454 39.807 34.4964C34.5449 33.0717 28.7544 34.1272 24.2759 37.6478L19.6523 33.0717L22.5841 33.0564C23.1934 33.0532 23.6848 32.5566 23.6817 31.9472L23.6703 29.7407C23.6671 29.1313 23.1707 28.6398 22.5612 28.643L13.1981 28.6913C12.5886 28.6944 12.0971 29.191 12.1004 29.8005L12.149 39.1635C12.1522 39.7729 12.6487 40.2643 13.2581 40.2612L15.4646 40.2498C16.074 40.2466 16.5654 39.7501 16.5624 39.1408L16.5473 36.2089L21.171 40.785C15.8198 47.7388 16.3461 57.745 22.744 64.0772C29.6743 70.9362 40.8529 70.8785 47.7119 63.9482C48.2553 63.3993 48.755 62.8234 49.2116 62.2252C47.7377 61.8247 46.3054 61.2309 44.9552 60.4414C44.8314 60.5772 44.7052 60.7116 44.5748 60.8434Z" fill="#A0DCE6"/>
<path d="M47.5828 38.9804C46.5024 37.9111 45.3186 37.011 44.0645 36.2784C43.0387 37.4041 42.2413 38.6627 41.6734 39.9956C42.6757 40.5622 43.6203 41.2687 44.4779 42.1175C48.4512 46.05 49.4122 51.8753 47.3468 56.7233C48.6556 57.463 50.0628 57.9623 51.5046 58.2212C54.1298 51.8044 52.8169 44.1607 47.5828 38.9804Z" fill="#A0DCE6"/>
<path d="M80.0238 42.8479L80.0034 38.9188C80.0003 38.3094 79.5038 37.8179 78.8943 37.8212L76.6876 37.8326C76.0781 37.8358 75.5868 38.3323 75.5898 38.9417L75.6101 42.8707L71.3463 42.8928C70.8558 39.1386 69.1763 35.511 66.2771 32.6415C59.3468 25.7824 48.1682 25.8402 41.3091 32.7704C40.7649 33.3203 40.2645 33.8973 39.8073 34.4963C38.8543 35.7453 38.0911 37.0921 37.5162 38.4975C34.8912 44.9144 36.204 52.5581 41.4381 57.7383C42.5182 58.8074 43.7016 59.7082 44.9556 60.4414C46.3058 61.2307 47.7382 61.8246 49.2121 62.2251C55.1521 63.8391 61.7669 62.2966 66.406 57.6094C69.2755 54.7101 70.9173 51.0654 71.3688 47.3064L75.6326 47.2844L75.6529 51.2134C75.656 51.8227 76.1526 52.3142 76.7621 52.3111L78.9689 52.2996C79.5783 52.2965 80.0697 51.8 80.0666 51.1906L80.0462 47.2615L83.9752 47.2414C84.5847 47.2381 85.076 46.7417 85.073 46.1322L85.0616 43.9255C85.0584 43.3159 84.5619 42.8244 83.9524 42.8277L80.0238 42.8479ZM63.2689 54.5045C60.0817 57.7248 55.6513 58.9657 51.5053 58.221C50.0634 57.9621 48.6563 57.4629 47.3475 56.7231C46.3453 56.1567 45.4006 55.45 44.543 54.6012C40.5697 50.6688 39.6088 44.8436 41.6741 39.9955C42.2419 38.6625 43.0392 37.4038 44.0651 36.2782C44.1892 36.1421 44.3156 36.0074 44.4463 35.8754C49.5907 30.6776 57.9745 30.6343 63.1723 35.7787C68.3701 40.9231 68.4133 49.3067 63.2689 54.5045Z" fill="#EC589B"/>
</svg>
