<svg width="92" height="73" viewBox="0 0 92 73" fill="none" xmlns="http://www.w3.org/2000/svg">
<rect x="0.5" y="23.5" width="91" height="39" fill="#C4C4C4" fill-opacity="0.31" stroke="white"/>
<path d="M40.8887 61.2223L46.222 71.0001L51.5553 61.2223" stroke="white"/>
<path d="M9.27767 43C9.27767 44.5172 8.23809 45.6111 7.111 45.6111C5.98392 45.6111 4.94434 44.5172 4.94434 43C4.94434 41.4829 5.98392 40.3889 7.111 40.3889C8.23809 40.3889 9.27767 41.4829 9.27767 43Z" fill="#EB9661" stroke="white"/>
<path d="M12 23.8667H46.2H84V62L12 62.8667V23.8667Z" fill="white"/>
<path d="M46.222 71L40.8887 62.1111H51.5553L46.222 71Z" fill="white"/>
<path d="M59.7023 49.7565L59.0351 46.4057C58.7705 45.0791 57.7321 44.0426 56.4056 43.7802L55.5027 43.6022C54.984 43.4997 54.5769 43.0962 54.4689 42.5784L54.2965 41.7494C54.2421 41.4834 54.3379 41.2087 54.547 41.036C55.3629 40.3608 56.1093 39.3679 56.541 38.1955C57.1405 38.0878 57.6865 37.5116 57.8632 36.7186C58.0812 35.7356 57.6486 34.8039 56.8962 34.6368C56.8882 34.6355 56.8803 34.6363 56.8707 34.6355C56.6439 32.0834 55.6609 30.1937 52.3924 30.1937C49.1783 30.1937 48.1584 32.083 47.9184 34.6337C47.9079 34.6364 47.8964 34.6355 47.8886 34.6369C47.1369 34.8039 46.7044 35.7357 46.9224 36.7186C47.0973 37.5116 47.6442 38.0878 48.2437 38.1955C48.6762 39.3684 49.4226 40.3613 50.2367 41.036C50.445 41.2088 50.5418 41.4836 50.4864 41.7486L50.315 42.5776C50.2077 43.0959 49.8008 43.4998 49.2811 43.6023L48.38 43.7804C47.2011 44.0132 46.2542 44.8576 45.8701 45.9728C47.0331 46.633 47.8824 47.7663 48.1541 49.1302L48.7351 52.0433H57.8262C58.3985 52.0433 58.9418 51.7865 59.3049 51.3434C59.6681 50.9007 59.814 50.3183 59.7023 49.7565Z" fill="#EB9661"/>
<path d="M46.8303 49.3941C46.5656 48.067 45.5274 47.0305 44.1999 46.7681L43.2979 46.5901C42.7793 46.4877 42.3713 46.0841 42.2641 45.5663L42.0918 44.7369C42.0372 44.4713 42.133 44.1966 42.3423 44.0235C43.1582 43.3488 43.9045 42.3553 44.3353 41.183C44.9357 41.0753 45.4816 40.499 45.6583 39.7061C45.8764 38.7232 45.4438 37.7913 44.6913 37.6238C44.6833 37.6225 44.6755 37.6234 44.6649 37.6225C44.439 35.0705 43.4561 33.1812 40.1866 33.1812C36.9733 33.1812 35.9536 35.07 35.7136 37.6212C35.7022 37.6234 35.6916 37.6225 35.6837 37.6238C34.9312 37.7913 34.4986 38.7232 34.7167 39.7061C34.8916 40.499 35.4385 41.0753 36.0381 41.183C36.4705 42.3557 37.2169 43.3488 38.0319 44.024C38.2402 44.1967 38.337 44.4714 38.2816 44.7365L38.1101 45.5656C38.0029 46.0837 37.5959 46.4878 37.0763 46.5901L36.1751 46.7682C34.8477 47.0306 33.8094 48.0672 33.5448 49.3941L32.8775 52.745C32.7659 53.3067 32.9118 53.8892 33.2749 54.3318C33.638 54.7748 34.1813 55.0316 34.7536 55.0316H45.6214C46.1937 55.0316 46.737 54.7748 47.1001 54.3318C47.4632 53.8892 47.6091 53.3067 47.4975 52.745L46.8303 49.3941Z" fill="#EB9661"/>
<rect x="85.7222" y="37.6111" width="2.77778" height="9.88889" rx="1.38889" fill="#EB9661" stroke="white" stroke-linecap="round"/>
<path d="M49.0833 13.7752C49.3155 13.9983 49.5004 14.2659 49.6268 14.5621C49.7536 14.8592 49.8189 15.1788 49.8189 15.5018C49.8189 15.8247 49.7536 16.1443 49.6268 16.4414C49.5004 16.7376 49.3155 17.0052 49.0833 17.2283C48.5759 17.7028 47.9072 17.9669 47.2124 17.9669C46.5177 17.9669 45.8489 17.7028 45.3416 17.2283C45.1093 17.0052 44.9245 16.7376 44.7981 16.4414C44.6713 16.1443 44.606 15.8247 44.606 15.5018C44.606 15.1788 44.6713 14.8592 44.7981 14.5621C44.9245 14.2659 45.1093 13.9983 45.3416 13.7752C45.8489 13.3007 46.5177 13.0366 47.2124 13.0366C47.9072 13.0366 48.5759 13.3007 49.0833 13.7752Z" fill="#C8C8C8" fill-opacity="0.31" stroke="white"/>
<path d="M47.5003 10.1293C45.4616 10.1293 43.4934 10.8458 41.9355 12.1446L39.7407 9.84648C41.8972 7.99746 44.6486 6.97546 47.5003 6.97546C50.3521 6.97546 53.1034 7.99746 55.2599 9.84648L53.0652 12.1446C51.5073 10.8458 49.539 10.1293 47.5003 10.1293Z" fill="#C8C8C8" fill-opacity="0.31" stroke="white"/>
<path d="M57.0902 7.26139C54.438 4.94589 51.032 3.66429 47.5 3.66429C43.968 3.66429 40.5621 4.94589 37.9098 7.26139L35.7151 4.95537C38.965 2.08812 43.1545 0.5 47.5 0.5C51.8455 0.5 56.035 2.08812 59.2849 4.95537L57.0902 7.26139Z" fill="#C8C8C8" fill-opacity="0.31" stroke="white"/>
</svg>
