<svg width="78" height="65" viewBox="0 0 78 65" fill="none" xmlns="http://www.w3.org/2000/svg">
<rect x="0.5" y="0.5" width="77" height="64" rx="4.5" fill="#C4C4C4" fill-opacity="0.31" stroke="#FEFEFE"/>
<rect x="13" y="17" width="10" height="7" fill="white"/>
<rect x="13" y="28" width="10" height="7" fill="white"/>
<rect x="13" y="38" width="10" height="7" fill="white"/>
<rect x="13" y="49" width="10" height="7" fill="white"/>
<rect x="26" y="17" width="10" height="7" fill="white"/>
<rect x="26" y="28" width="10" height="7" fill="white"/>
<rect x="26" y="38" width="10" height="7" fill="white"/>
<rect x="26" y="49" width="10" height="7" fill="white"/>
<rect x="39" y="17" width="10" height="7" fill="white"/>
<rect x="39" y="28" width="10" height="7" fill="white"/>
<rect x="39.5" y="38.5" width="10" height="7" fill="#EB9661" stroke="white"/>
<rect x="39" y="49" width="10" height="7" fill="white"/>
<rect x="53" y="17" width="10" height="7" fill="white"/>
<rect x="53" y="28" width="10" height="7" fill="white"/>
<rect x="53" y="38" width="10" height="7" fill="white"/>
<rect x="53" y="49" width="10" height="7" fill="white"/>
<circle cx="17" cy="9" r="4" fill="white"/>
<circle cx="62" cy="9" r="4" fill="white"/>
<rect x="15.25" y="0.25" width="2.5" height="8.5" rx="1.25" fill="#EB9661" stroke="white" stroke-width="0.5" stroke-linecap="round" stroke-linejoin="round"/>
<rect x="60.25" y="0.25" width="2.5" height="8.5" rx="1.25" fill="#EB9661" stroke="white" stroke-width="0.5" stroke-linecap="round" stroke-linejoin="round"/>
</svg>
