<svg width="129" height="89" viewBox="0 0 129 89" fill="none" xmlns="http://www.w3.org/2000/svg">
<path d="M12.5 14.5H3L1.5 15.5L1 16.5L1.5 84L3.49996 86.5L4.99996 87.5L124.731 88.5L127.5 87L128.5 84.5V18L128 16L125.5 15L95 15.5H94L93 15L92.5 14L92 13L86 3.5L85.5 2.5L84.5 1.5L82.5 1H60H47L44.5 2L43 4.5L41 9.5L39.5 13L38.5 14L37 14.5H31.5M12.5 14.5V8L14 7H30L31.5 8V14.5M12.5 14.5H31.5" stroke="black"/>
<circle cx="68.5" cy="49" r="31.5" stroke="black"/>
<mask id="path-3-inside-1" fill="white">
<path d="M87.4087 30.7098C82.6967 25.5847 76.1584 22.526 69.2321 22.2067C62.3058 21.8874 55.5588 24.3336 50.4755 29.0072C45.3921 33.6807 42.3888 40.1988 42.1262 47.1275C41.8636 54.0562 44.3632 60.8279 49.0751 65.953L50.186 64.9317C45.7472 60.1037 43.3924 53.7244 43.6398 47.1972C43.8872 40.6701 46.7165 34.5298 51.5052 30.1272C56.2939 25.7245 62.6498 23.4201 69.1747 23.7209C75.6996 24.0217 81.8589 26.903 86.2978 31.7311L87.4087 30.7098Z"/>
</mask>
<path d="M87.4087 30.7098C82.6967 25.5847 76.1584 22.526 69.2321 22.2067C62.3058 21.8874 55.5588 24.3336 50.4755 29.0072C45.3921 33.6807 42.3888 40.1988 42.1262 47.1275C41.8636 54.0562 44.3632 60.8279 49.0751 65.953L50.186 64.9317C45.7472 60.1037 43.3924 53.7244 43.6398 47.1972C43.8872 40.6701 46.7165 34.5298 51.5052 30.1272C56.2939 25.7245 62.6498 23.4201 69.1747 23.7209C75.6996 24.0217 81.8589 26.903 86.2978 31.7311L87.4087 30.7098Z" stroke="black" stroke-width="2" mask="url(#path-3-inside-1)"/>
</svg>
