<svg width="44" height="44" viewBox="0 0 44 44" fill="none" xmlns="http://www.w3.org/2000/svg">
<path d="M33.0524 14.8676L36.3137 11.6062L40.0801 15.3727L44 11.4529L40.2335 7.68645L44 3.91988L40.0801 0L36.3137 3.76648L32.5471 0L28.6273 3.91988L32.3937 7.68637L29.1324 10.9477C21.9744 5.68453 11.824 6.28824 5.35288 12.7595C-1.78429 19.8967 -1.78429 31.51 5.35288 38.6471C12.4901 45.7843 24.1033 45.7843 31.2404 38.6471C37.7116 32.1761 38.3155 22.0255 33.0524 14.8676ZM9.27291 34.7274C4.29714 29.7516 4.29714 21.6553 9.27291 16.6795C14.2487 11.7037 22.3449 11.7037 27.3209 16.6795C32.2966 21.6553 32.2966 29.7516 27.3209 34.7274C22.3451 39.7032 14.2488 39.7031 9.27291 34.7274Z" fill="#EC589B"/>
</svg>
