<svg width="103" height="96" viewBox="0 0 103 96" fill="none" xmlns="http://www.w3.org/2000/svg">
<path d="M23.1147 42.29L28.9031 48.2063H38.9404L41.2188 49.6854L42.7583 54.4776H46.2067L48.5467 58.2049H53.1651L54.4583 53.8268V48.2063H62.0325H69.2988V55.8383L71.3309 58.2049H75.4566L77.4272 54.4776H80.5061L82.7845 52.2886V48.2063H88.5729V42.29H82.7845V39.2135L78.2893 36.3145L76.6266 38.4444L77.4272 35.6638L75.4566 33.0606H72.8088L69.2988 35.6638V42.29H65.1114H59.6925L60.8625 40.456L62.0325 35.6638V28.6234L59.6925 22.2929L54.7046 17.1457L53.1651 14.5426V8.62626V4.18903L50.8251 2H46.2067H38.9404H32.7826L30.812 4.18903L28.9031 8.62626V17.1457L23.1147 22.2929L20.4668 28.6234V35.6638L23.1147 42.29Z" stroke="#EB9661" stroke-width="3"/>
<path d="M35.7417 47.9663V42.6792H39.5614L41.9025 39.3895L44.5517 37.2159H46.5232L48.8027 33.8674H52.2527L54.2242 37.2159V42.6792M54.2242 42.6792H59.9538H69.4415V47.6138M54.2242 42.6792V47.9663L69.4415 47.6138M69.4415 47.6138V56.1319L71.721 58.0705L75.9104 57.4243L76.5264 35.7473L80.0381 37.2159L82.6873 39.3895V49.3174" stroke="#EB9661" stroke-width="3"/>
<path d="M28.665 17.2613L33.9458 13.7675M33.9458 13.7675L48.6305 13.4788M33.9458 13.7675V8.10986L34.7412 7.2439H37.0051H40.8598H47.2232L48.6305 8.10986V9.43766V10.8809V13.4788M48.6305 13.4788L55.361 17.6932" stroke="#EB9661" stroke-width="3"/>
<path d="M41.207 40.9162V50.5014L43.1053 54.1472H46.1671L47.3306 56.176M48.4941 58.2047L47.3306 56.176M47.3306 56.176V36.1531" stroke="#EB9661" stroke-width="3"/>
<path d="M25.1754 88.608C27.1794 88.608 28.3194 86.25 28.5954 81.534C28.1514 82.17 27.6174 82.656 26.9934 82.992C26.3694 83.316 25.7274 83.478 25.0674 83.478C23.9154 83.478 22.9254 83.01 22.0974 82.074C21.2694 81.138 20.8554 79.836 20.8554 78.168C20.8554 75.876 21.4494 73.884 22.6374 72.192C23.2134 71.364 23.9574 70.71 24.8694 70.23C25.7814 69.738 26.8194 69.492 27.9834 69.492C29.1594 69.492 30.0534 69.798 30.6654 70.41C31.2894 71.01 31.6014 71.754 31.6014 72.642C31.6014 73.53 31.3254 74.232 30.7734 74.748C30.2214 75.264 29.5674 75.522 28.8114 75.522C28.3194 75.522 27.8514 75.402 27.4074 75.162C26.9634 74.922 26.6214 74.574 26.3814 74.118C26.7054 74.202 27.0114 74.244 27.2994 74.244C27.9474 74.244 28.4574 74.058 28.8294 73.686C29.2134 73.314 29.4054 72.894 29.4054 72.426C29.4054 71.958 29.2494 71.574 28.9374 71.274C28.6254 70.962 28.1814 70.806 27.6054 70.806C26.8494 70.806 26.1594 71.196 25.5354 71.976C24.9234 72.744 24.4614 73.68 24.1494 74.784C23.8374 75.876 23.6814 77.01 23.6814 78.186C23.6814 79.362 23.9094 80.286 24.3654 80.958C24.8334 81.618 25.3974 81.948 26.0574 81.948C26.7174 81.948 27.2874 81.624 27.7674 80.976C28.2594 80.328 28.5054 79.452 28.5054 78.348C28.5054 78.072 28.4874 77.79 28.4514 77.502V77.448C28.7154 77.424 28.9914 77.412 29.2794 77.412C29.9754 77.412 30.4554 77.532 30.7194 77.772C30.9954 78 31.1334 78.396 31.1334 78.96C31.1334 82.62 30.4794 85.476 29.1714 87.528C28.7154 88.236 28.1214 88.812 27.3894 89.256C26.6574 89.7 25.8294 89.922 24.9054 89.922C23.6454 89.922 22.6974 89.598 22.0614 88.95C21.4374 88.314 21.1254 87.582 21.1254 86.754C21.1254 85.926 21.3474 85.26 21.7914 84.756C22.2354 84.264 22.7874 84.018 23.4474 84.018C23.8074 84.018 24.2034 84.12 24.6354 84.324C23.9994 85.128 23.6814 85.974 23.6814 86.862C23.6814 87.378 23.8014 87.798 24.0414 88.122C24.2814 88.446 24.6594 88.608 25.1754 88.608ZM39.8908 74.856C39.8908 75.276 39.7108 75.846 39.3508 76.566C38.9908 77.274 38.5528 78.06 38.0368 78.924C37.5208 79.788 37.0048 80.712 36.4888 81.696C35.9728 82.668 35.5348 83.766 35.1748 84.99C34.8148 86.226 34.6348 87.432 34.6348 88.608C34.6348 89.148 34.6768 89.664 34.7608 90.156C33.7888 89.976 33.1288 89.706 32.7808 89.346C32.4328 88.998 32.2588 88.584 32.2588 88.104C32.2588 87.444 32.7388 86.142 33.6988 84.198C33.5188 83.454 33.2968 82.29 33.0328 80.706C32.7688 79.11 32.4988 77.724 32.2228 76.548C31.9588 75.372 31.6528 74.496 31.3048 73.92C31.9648 73.608 32.4928 73.452 32.8888 73.452C33.2848 73.452 33.5848 73.542 33.7888 73.722C33.9928 73.902 34.1608 74.262 34.2928 74.802C34.4368 75.33 34.5388 75.768 34.5988 76.116C34.7668 77.268 34.8508 77.91 34.8508 78.042C34.8508 78.174 34.8988 78.714 34.9948 79.662C35.0908 80.598 35.1628 81.216 35.2108 81.516C37.3468 77.376 38.4148 74.61 38.4148 73.218C39.3988 73.722 39.8908 74.268 39.8908 74.856ZM47.39 82.092C47.39 82.692 47.426 83.328 47.498 84C47.114 84.024 46.862 84.036 46.742 84.036C46.07 84.036 45.584 83.922 45.284 83.694C44.984 83.454 44.834 83.106 44.834 82.65C44.834 82.194 44.96 81.258 45.212 79.842C45.476 78.414 45.608 77.334 45.608 76.602C45.608 75.858 45.368 75.486 44.888 75.486C44.624 75.486 44.336 75.648 44.024 75.972C43.712 76.284 43.418 76.716 43.142 77.268C42.866 77.808 42.632 78.504 42.44 79.356C42.26 80.208 42.17 81.03 42.17 81.822C42.17 82.602 42.206 83.328 42.278 84C41.894 84.024 41.642 84.036 41.522 84.036C40.85 84.036 40.364 83.922 40.064 83.694C39.764 83.454 39.614 83.058 39.614 82.506C39.614 82.374 39.734 81.48 39.974 79.824C40.226 78.168 40.352 76.86 40.352 75.9C40.352 74.928 40.25 74.04 40.046 73.236C40.934 73.512 41.552 73.908 41.9 74.424C42.248 74.94 42.422 75.576 42.422 76.332C42.422 76.716 42.38 77.202 42.296 77.79C42.704 76.59 43.268 75.594 43.988 74.802C44.72 74.01 45.422 73.614 46.094 73.614C46.778 73.614 47.27 73.866 47.57 74.37C47.882 74.874 48.038 75.6 48.038 76.548C48.494 75.672 49.016 74.964 49.604 74.424C50.192 73.884 50.732 73.614 51.224 73.614C51.956 73.614 52.472 73.836 52.772 74.28C53.084 74.712 53.24 75.306 53.24 76.062C53.24 76.806 53.12 77.856 52.88 79.212C52.652 80.568 52.538 81.558 52.538 82.182C52.538 82.794 52.616 83.244 52.772 83.532C52.928 83.808 53.192 84.048 53.564 84.252C53.408 84.264 53.186 84.27 52.898 84.27C51.89 84.27 51.17 84.114 50.738 83.802C50.318 83.49 50.108 82.944 50.108 82.164C50.108 81.72 50.228 80.856 50.468 79.572C50.708 78.276 50.828 77.31 50.828 76.674C50.828 75.882 50.588 75.486 50.108 75.486C49.748 75.486 49.358 75.75 48.938 76.278C48.53 76.794 48.17 77.58 47.858 78.636C47.546 79.68 47.39 80.832 47.39 82.092ZM55.3376 66.774C56.1896 67.002 56.7716 67.416 57.0836 68.016C57.4076 68.604 57.5696 69.258 57.5696 69.978C57.5696 70.698 57.4556 71.928 57.2276 73.668C56.9996 75.396 56.8436 76.776 56.7596 77.808C57.1196 76.524 57.6296 75.504 58.2896 74.748C58.9616 73.992 59.6816 73.614 60.4496 73.614C61.2176 73.614 61.8776 73.98 62.4296 74.712C62.9936 75.444 63.2756 76.38 63.2756 77.52C63.2756 79.284 62.8016 80.808 61.8536 82.092C60.9176 83.364 59.8436 84 58.6316 84C58.2116 84 57.7916 83.904 57.3716 83.712C57.8876 83.568 58.3556 83.274 58.7756 82.83C59.1956 82.386 59.5376 81.876 59.8016 81.3C60.3416 80.1 60.6116 78.9 60.6116 77.7C60.6116 77.112 60.4976 76.596 60.2696 76.152C60.0536 75.708 59.7596 75.486 59.3876 75.486C58.7876 75.486 58.1756 76.098 57.5516 77.322C56.9396 78.546 56.6156 80.07 56.5796 81.894V82.236C56.6036 82.656 56.7056 83.352 56.8856 84.324C55.1576 83.928 54.2936 82.686 54.2936 80.598C54.2936 79.746 54.4916 78.03 54.8876 75.45C55.2956 72.87 55.4996 70.986 55.4996 69.798C55.4996 68.61 55.4456 67.602 55.3376 66.774ZM69.6408 73.614C70.0008 73.59 70.2528 73.578 70.3968 73.578C71.0208 73.578 71.4948 73.692 71.8188 73.92C72.1428 74.148 72.3048 74.568 72.3048 75.18C72.3048 75.372 72.1908 76.218 71.9628 77.718C71.7348 79.206 71.6208 80.484 71.6208 81.552C71.6208 82.62 71.7348 83.562 71.9628 84.378C71.0628 84.09 70.4388 83.682 70.0908 83.154C69.7428 82.626 69.5688 81.972 69.5688 81.192C69.5688 80.892 69.6348 80.214 69.7668 79.158C69.3948 80.526 68.8248 81.678 68.0568 82.614C67.3008 83.538 66.5868 84 65.9148 84C64.5348 84 63.8448 83.004 63.8448 81.012C63.8448 80.352 63.9408 79.434 64.1328 78.258C64.3368 77.07 64.4388 76.17 64.4388 75.558C64.4388 74.946 64.3548 74.328 64.1868 73.704C65.1828 73.704 65.9028 73.836 66.3468 74.1C66.8028 74.352 67.0308 74.862 67.0308 75.63C67.0308 76.038 66.9048 76.848 66.6528 78.06C66.4008 79.272 66.2748 80.184 66.2748 80.796C66.2748 81.684 66.5148 82.128 66.9948 82.128C67.2348 82.128 67.5108 81.966 67.8228 81.642C68.1348 81.306 68.4348 80.868 68.7228 80.328C69.0108 79.776 69.2508 79.092 69.4428 78.276C69.6468 77.448 69.7488 76.614 69.7488 75.774C69.7488 74.922 69.7128 74.202 69.6408 73.614ZM75.0849 80.364C75.0849 81.792 75.5169 82.506 76.3809 82.506C76.8369 82.506 77.2809 82.26 77.7129 81.768C78.1449 81.276 78.4929 80.616 78.7569 79.788C79.0329 78.96 79.2669 78.078 79.4589 77.142C79.6629 76.194 79.8129 75.192 79.9089 74.136C80.0769 72.096 80.1609 70.506 80.1609 69.366C80.1609 68.214 80.1129 67.35 80.0169 66.774C80.8809 66.966 81.4869 67.374 81.8349 67.998C82.1829 68.622 82.3569 69.408 82.3569 70.356C82.3569 71.304 82.1529 73.068 81.7449 75.648C81.3489 78.228 81.1509 80.112 81.1509 81.3C81.1509 82.488 81.2049 83.496 81.3129 84.324C80.4609 84.096 79.8729 83.688 79.5489 83.1C79.2369 82.5 79.0809 81.75 79.0809 80.85C78.7089 81.882 78.1509 82.698 77.4069 83.298C76.6629 83.898 75.8949 84.198 75.1029 84.198C74.3109 84.198 73.6629 83.898 73.1589 83.298C72.6669 82.686 72.4209 81.792 72.4209 80.616C72.4209 78.756 72.9309 77.16 73.9509 75.828C74.9709 74.484 76.1769 73.812 77.5689 73.812C77.9649 73.812 78.5889 73.908 79.4409 74.1C78.6969 74.292 78.0309 74.628 77.4429 75.108C76.8669 75.576 76.4169 76.116 76.0929 76.728C75.4209 77.94 75.0849 79.152 75.0849 80.364Z" fill="black" fill-opacity="0.85"/>
</svg>
