<svg width="49" height="60" viewBox="0 0 49 60" fill="none" xmlns="http://www.w3.org/2000/svg">
<path d="M23.8971 4H15.0011C10.582 4 7.00098 7.58197 7.00098 12.0001V14.0001L10.001 19.0002L13.001 14.0001V12.0001C13.001 10.8951 13.896 10 15.0011 10H23.6901L23.8971 4Z" fill="#38454F"/>
<path d="M39.0006 4H30.1045L30.3105 10H33.0006C33.0006 13.314 35.6866 16.0001 39.0006 16.0001V32.0001H45.0006V10C45.0006 6.68607 42.3145 4 39.0006 4Z" fill="#38454F"/>
<path d="M4.99996 60.0002C4.44695 60.0002 4 59.5522 4 59.0002V49.0002C4 48.4483 4.44695 48.0002 4.99996 48.0002C5.55298 48.0002 5.99993 48.4483 5.99993 49.0002V59.0002C6.00005 59.5522 5.55298 60.0002 4.99996 60.0002Z" fill="#BDC3C7"/>
<path d="M30.1785 59.0003H23.8216C22.8256 59.0003 22.0286 58.1753 22.0626 57.1803L23.9995 1H29.9995L31.9375 57.1803C31.9715 58.1753 31.1745 59.0003 30.1785 59.0003Z" fill="#BDC3C7"/>
<path d="M39 13.0003C37.346 13.0003 36 11.6542 36 10.0003C36 8.34627 37.346 7.00024 39 7.00024C40.654 7.00024 42 8.34627 42 10.0003C42 11.6542 40.654 13.0003 39 13.0003Z" fill="#BDC3C7"/>
<path d="M46.5 37.0002H37.5C36.125 37.0002 35 35.8752 35 34.5002C35 33.1253 36.125 32.0002 37.5 32.0002H46.5C47.875 32.0002 49 33.1253 49 34.5002C49 35.8752 47.875 37.0002 46.5 37.0002Z" fill="#BDC3C7"/>
<path d="M46.5 42.9999H37.5C36.125 42.9999 35 41.8749 35 40.5C35 39.125 36.125 38 37.5 38H46.5C47.875 38 49 39.125 49 40.5C49 41.8749 47.875 42.9999 46.5 42.9999Z" fill="#BDC3C7"/>
<path d="M46.5 48.9999H37.5C36.125 48.9999 35 47.8749 35 46.5C35 45.125 36.125 44 37.5 44H46.5C47.875 44 49 45.125 49 46.5C49 47.8749 47.875 48.9999 46.5 48.9999Z" fill="#BDC3C7"/>
<path d="M39.0005 10C38.4474 10 38.0005 9.552 38.0005 9.00004V0.999965C38.0005 0.44801 38.4474 0 39.0005 0C39.5535 0 40.0004 0.44801 40.0004 0.999965V9.00004C40.0004 9.552 39.5535 10 39.0005 10Z" fill="#BDC3C7"/>
<path d="M11.5326 30.0002H8.46752C7.65647 30.0002 6.99951 29.3432 6.99951 28.5332V25.4672C6.99951 24.6572 7.65647 24.0002 8.46752 24.0002H11.5326C12.3426 24.0002 12.9995 24.6572 12.9995 25.4672V28.5332C12.9995 29.3432 12.3426 30.0002 11.5326 30.0002Z" fill="#BDC3C7"/>
<path d="M9.99997 25C9.44696 25 9 24.552 9 24V19C9 18.448 9.44696 18 9.99997 18C10.553 18 10.9999 18.448 10.9999 19V24C10.9999 24.552 10.553 25 9.99997 25Z" fill="#BDC3C7"/>
<path d="M22.5521 43H2.14103C0.959067 43 0 43.958 0 45.141V46.859C0 48.042 0.95895 49 2.14103 49H22.3451L22.5521 43Z" fill="#38454F"/>
</svg>
