<svg width="65" height="37" viewBox="0 0 65 37" fill="none" xmlns="http://www.w3.org/2000/svg">
<path d="M40.5942 37H0L14.4057 27H55L40.5942 37Z" fill="#C1F4EE"/>
<g opacity="0.57">
<path opacity="0.57" d="M55.3321 26.5776H14.7852L5.92188 33.2404H46.4688L55.3321 26.5776Z" fill="#5F938D"/>
</g>
<path d="M53 0H12.1879C5.4567 0 0 6.26805 0 14C0 21.7319 5.45683 28 12.1879 28H53V0Z" fill="#C1F4EE"/>
<path d="M53 28C59.6274 28 65 21.732 65 14C65 6.26801 59.6274 0 53 0C46.3726 0 41 6.26801 41 14C41 21.732 46.3726 28 53 28Z" fill="#88D1CB"/>
<path opacity="0.57" d="M52.8768 23.4627C57.2589 23.4627 60.8112 19.3749 60.8112 14.3324C60.8112 9.2899 57.2589 5.20215 52.8768 5.20215C48.4947 5.20215 44.9424 9.2899 44.9424 14.3324C44.9424 19.3749 48.4947 23.4627 52.8768 23.4627Z" fill="#5F938D"/>
<path d="M52.877 18.8837C55.0614 18.8837 56.8322 16.846 56.8322 14.3324C56.8322 11.8187 55.0614 9.78101 52.877 9.78101C50.6926 9.78101 48.9219 11.8187 48.9219 14.3324C48.9219 16.846 50.6926 18.8837 52.877 18.8837Z" fill="#5F938D"/>
<path d="M1 18.0001C2.32949 23.7492 7.05008 28 12.6698 28H53L43.8451 18H1V18.0001Z" fill="#88D1CB"/>
<path d="M53.0001 4C48.0374 4 44 8.48602 44 14.0001C44 19.5141 48.0374 24 53.0001 24C57.9627 24 62 19.514 62 14.0001C62 8.48615 57.9627 4 53.0001 4ZM53.0001 22.0392C49.1408 22.0392 46.0012 18.433 46.0012 14.0002C46.0012 9.56742 49.1408 5.96102 53.0001 5.96102C56.8592 5.96102 59.9988 9.56742 59.9988 14.0002C59.9988 18.433 56.8592 22.0392 53.0001 22.0392Z" fill="black"/>
<path d="M53.0001 9C50.243 9 48 11.4674 48 14.5001C48 17.5328 50.2428 20 53.0001 20C55.757 20 58 17.5329 58 14.5001C58 11.4672 55.757 9 53.0001 9ZM53.0001 18.0305C51.3491 18.0305 50.0059 16.4468 50.0059 14.4998C50.0059 12.5528 51.3491 10.969 53.0001 10.969C54.6509 10.969 55.9941 12.5527 55.9941 14.4998C55.9942 16.4466 54.6509 18.0305 53.0001 18.0305Z" fill="black"/>
</svg>
