<?xml version="1.0" encoding="iso-8859-1"?>
<!-- Generator: Adobe Illustrator 19.0.0, SVG Export Plug-In . SVG Version: 6.00 Build 0)  -->
<svg version="1.1" id="Layer_1" xmlns="http://www.w3.org/2000/svg" xmlns:xlink="http://www.w3.org/1999/xlink" x="0px" y="0px"
	 viewBox="0 0 512.001 512.001" style="enable-background:new 0 0 512.001 512.001;" xml:space="preserve">
<polygon style="fill:#C1F4EE;" points="319.923,397.908 9.266,397.908 119.509,314.8 430.167,314.8 "/>
<g style="opacity:0.57;">
	<polygon style="fill:#5F938D;" points="430.323,314.8 119.666,314.8 51.758,365.848 362.415,365.848 	"/>
</g>
<path style="fill:#C1F4EE;" d="M411.513,114.095H100.488c-51.298,0-92.883,47.853-92.883,106.882s41.586,106.882,92.883,106.882
	h311.025L411.513,114.095L411.513,114.095z"/>
<ellipse style="fill:#88D1CB;" cx="411.516" cy="220.982" rx="92.88" ry="106.881"/>
<g>
	<ellipse style="opacity:0.57;fill:#5F938D;enable-background:new    ;" cx="411.516" cy="220.982" rx="60.791" ry="69.953"/>
	<ellipse style="fill:#5F938D;" cx="411.516" cy="220.982" rx="30.303" ry="34.871"/>
</g>
<path style="fill:#88D1CB;" d="M10.473,247.521c10.253,46.196,46.658,80.353,89.997,80.353h311.025l-70.602-80.354H10.473V247.521z"
	/>
<path d="M411.513,106.49H100.488C45.078,106.49,0,157.849,0,220.977c0,54.197,33.227,99.717,77.691,111.513L4.47,392.007
	c-2.497,2.031-3.446,5.413-2.369,8.445c1.077,3.032,3.947,5.059,7.165,5.059h310.658c1.747,0,3.441-0.602,4.796-1.703l84.084-68.345
	h2.711c55.409,0,100.487-51.358,100.487-114.486C512,157.849,466.923,106.49,411.513,106.49z M15.208,220.977
	c0-54.742,38.256-99.279,85.28-99.279h261.021c-30.145,19.785-50.482,56.877-50.482,99.279c0,42.402,20.338,79.493,50.482,99.278
	H100.488C53.464,320.256,15.208,275.72,15.208,220.977z M317.222,390.304H30.675l67.468-54.841h2.344h284.204L317.222,390.304z
	 M411.513,320.256c-47.024,0-85.28-44.536-85.28-99.278s38.256-99.279,85.28-99.279c47.023,0,85.279,44.537,85.279,99.279
	S458.536,320.256,411.513,320.256z"/>
<path d="M411.513,143.42c-37.713,0-68.395,34.792-68.395,77.557c0,42.765,30.682,77.556,68.395,77.556s68.394-34.792,68.394-77.556
	S449.226,143.42,411.513,143.42z M411.513,283.326c-29.328,0-53.187-27.969-53.187-62.348s23.859-62.349,53.187-62.349
	c29.327,0,53.186,27.97,53.186,62.349S440.84,283.326,411.513,283.326z"/>
<path d="M411.513,178.503c-20.903,0-37.908,19.055-37.908,42.476s17.004,42.475,37.908,42.475c20.902,0,37.907-19.053,37.907-42.475
	S432.415,178.503,411.513,178.503z M411.513,248.244c-12.517,0-22.7-12.231-22.7-27.267s10.183-27.268,22.7-27.268
	c12.516,0,22.699,12.231,22.699,27.268C434.213,236.012,424.029,248.244,411.513,248.244z"/>
<g>
</g>
<g>
</g>
<g>
</g>
<g>
</g>
<g>
</g>
<g>
</g>
<g>
</g>
<g>
</g>
<g>
</g>
<g>
</g>
<g>
</g>
<g>
</g>
<g>
</g>
<g>
</g>
<g>
</g>
</svg>
