<svg width="41" height="44" viewBox="0 0 41 44" fill="none" xmlns="http://www.w3.org/2000/svg">
<path d="M39.9614 1.12343C39.2544 0.362115 38.2829 -0.045294 37.2809 0.00400791L25.1239 0.592318C23.1604 0.687355 21.6402 2.47381 21.7287 4.58233C21.8172 6.69097 23.4832 8.32035 25.4443 8.22825L28.4048 8.08493L24.5371 12.2383C22.0074 10.5224 19.0737 9.6036 16.0081 9.6036C11.7301 9.6036 7.70812 11.3925 4.68342 14.6409C-1.56114 21.3464 -1.56114 32.2572 4.68342 38.9628C7.70812 42.2112 11.7301 44 16.0081 44C20.2862 44 24.3079 42.2112 27.3329 38.9628C32.7127 33.1857 33.4571 24.2878 29.5672 17.6463L33.4467 13.4804L33.3049 16.6578C33.2108 18.7662 34.726 20.5572 36.6894 20.6583C36.7476 20.6612 36.8051 20.6628 36.8628 20.6628C38.7498 20.6628 40.3233 19.0697 40.4148 17.0239L40.9959 4.00498C41.0441 2.93091 40.6685 1.88487 39.9614 1.12343ZM22.2999 33.5581C20.6193 35.3626 18.385 36.3564 16.0084 36.3564C13.6315 36.3564 11.3972 35.3626 9.71684 33.5581C6.24773 29.8327 6.24773 23.7712 9.71684 20.0458C11.3972 18.2412 13.6318 17.2474 16.0084 17.2474C18.385 17.2474 20.6196 18.2412 22.2999 20.0458C25.769 23.7709 25.769 29.8325 22.2999 33.5581Z" fill="#21C8DF"/>
</svg>
