<svg width="53" height="69" viewBox="0 0 53 69" fill="none" xmlns="http://www.w3.org/2000/svg">
<path d="M29.2509 17L30 12.2505L25.8308 12L25 16.3242L29.2509 17Z" fill="#FFD6CF"/>
<path opacity="0.32" d="M29.5463 15L30 12.358L25.5706 12L25 14.3978L29.5463 15Z" fill="#831232"/>
<path d="M49.8554 11.2344H47.0542V35.3669H49.8554V11.2344Z" fill="#998269"/>
<path d="M49.9235 30.5874H47.0542V68.3864H49.9235V30.5874Z" fill="#998269"/>
<path d="M50 29H47V36H50V29Z" fill="#836F5A"/>
<path d="M5 56.1481L14.4117 47.3455L17.8059 36H23L19.2593 49.2689C19.1595 49.6331 18.9802 49.9559 18.7472 50.2288C18.6599 50.3522 18.5622 50.4706 18.45 50.5801L7.42014 61L5 56.1481Z" fill="#347642"/>
<g opacity="0.53">
<path opacity="0.53" d="M17.9512 36.0989L16.6396 40.5877H21.9152L23.1509 36.0989H17.9512Z" fill="#2B5448"/>
</g>
<path d="M33.1731 1.23483C32.6118 0.565633 31.8515 0.179176 31.032 0.146526L27.4168 0.00213233C25.7174 -0.0638721 24.2907 1.4106 24.2297 3.29264L24.002 10.3174C23.9725 11.2265 24.2655 12.0957 24.8268 12.7651C25.3881 13.4344 26.1484 13.8207 26.9679 13.8535L30.583 13.9977C30.6207 13.9993 30.6582 14 30.6958 14C31.4741 14 32.2137 13.677 32.7893 13.0828C33.3924 12.4601 33.7407 11.6164 33.7702 10.7074L33.998 3.68262C34.0274 2.77305 33.7344 1.90388 33.1731 1.23483Z" fill="#FFD6CF"/>
<path d="M15 12.731L11.6115 12.0152C11.2618 11.9414 10.9143 12.1439 10.8499 12.4589L9.01383 21.4464C8.93282 21.8426 9.21563 22.2255 9.6558 22.3161L12.9811 23L15 12.731Z" fill="#AA6518"/>
<path d="M17.8397 29.9804L12.1683 29.0623C11.4033 28.9384 10.8873 28.2591 11.0211 27.5524L14.5257 9.07918C14.6599 8.37253 15.3953 7.89586 16.1603 8.01953L21.8317 8.93764C22.5967 9.06157 23.1127 9.74088 22.9789 10.4475L19.4743 28.9207C19.3403 29.6273 18.6047 30.1042 17.8397 29.9804Z" fill="#FFB057"/>
<path opacity="0.48" d="M21.8314 9.03532L21.6119 9L18.1762 27.0268C18.042 27.7302 17.3066 28.2047 16.5418 28.0816L11.09 27.203L11.0212 27.5638C10.887 28.2672 11.4034 28.9435 12.1684 29.0666L17.8398 29.9805C18.6049 30.1039 19.3404 29.6291 19.4744 28.9257L22.979 10.538C23.1124 9.83499 22.5963 9.15868 21.8314 9.03532Z" fill="#AA6518"/>
<path d="M34 2.06745C33.8571 1.73808 33.658 1.43159 33.4071 1.16001C32.8254 0.531289 32.0376 0.168207 31.1885 0.137531L27.4422 0.00200336C25.6813 -0.0600089 24.2029 1.32528 24.1397 3.09349L24 7C25.5354 6.71731 30.9773 5.50338 34 2.06745Z" fill="#C71C4B"/>
<path d="M30.9886 21.3636C31.4064 18.979 29.7973 16.6861 27.4128 16.2681L22.9102 15.4791C22.192 15.3532 21.5015 15.8379 21.3757 16.5561L17.9512 36.0986L22.2361 36.8495C22.2606 36.8993 22.284 36.9493 22.312 36.998L29.4769 49.6464V63.5948L34.6802 64.1993V49.1326C34.6802 48.9737 34.6635 48.8188 34.636 48.6676C34.603 48.3049 34.496 47.944 34.3027 47.6092L28.2591 36.9402L29.9258 27.4291L30.9886 21.3636Z" fill="#71CE93"/>
<path d="M23.7041 21.2077L33.5979 31.1015L33.6606 31.0389L33.6641 31.1231L46.1011 30.5869L45.8937 25.7722L35.5308 26.2189L27.6892 18.7031L23.7041 21.2077Z" fill="#71CE93"/>
<path d="M9.29951 67.3616L9.64606 67.6925L9.99142 67.3604L10.8457 66.5387L10.8457 66.5387C11.6482 65.7667 11.723 64.533 11.0121 63.6758L5.21193 56.6808L4.8696 56.268L4.48172 56.6384L1.65469 59.338L1.27602 59.6997L1.65469 60.0613L9.29951 67.3616Z" fill="#D8EDDE" stroke="#E0D7D7"/>
<path d="M46 25.3213L53 25L50.9679 29.8941L46.2224 30L46 25.3213Z" fill="#FFD6CF"/>
<path d="M33.958 48.4491C33.9265 48.0796 33.8242 47.7118 33.6392 47.3708L27.859 36.5006L28.4747 32.7572L18.7639 31L18 35.6431L22.0982 36.4082C22.1217 36.4589 22.144 36.5098 22.1708 36.5594L29.0235 49.4464V63.6578L34 65V48.9229C34.0003 48.7612 33.9843 48.6031 33.958 48.4491Z" fill="#3F8E50"/>
<path d="M40 67.5H40.5023L40.5 66.9978L40.4959 66.088L40.4959 66.0879C40.4913 65.0963 39.6023 64.4028 38.6314 64.3113C38.6314 64.3113 38.6314 64.3113 38.6314 64.3113L30.0469 63.5022L29.5 63.4507V64V67V67.5H30H40Z" fill="#D8EDDE" stroke="#E0D7D7"/>
</svg>
