<svg width="205" height="134" viewBox="0 0 205 134" fill="none" xmlns="http://www.w3.org/2000/svg">
<path d="M117 43.8667V57.5579V67.5891L115.375 70.6173L112.757 73.2824L109.75 75.3753L105.814 76.5358L102.75 77L99 76.5358V69.6224V57.5579V43.8667V30H102.375H106.125L110.057 31.26L112.757 33.2933L115.071 36.14L117 39.9802V43.8667Z" fill="#EB5E60"/>
<path d="M0.147177 61.7055L0.27701 48.257L0.372134 38.4036L4.65056 32.8519L11.5941 29.7229L18.3788 29.7884L18.3133 36.5793L18.1989 48.43L18.069 61.8785L17.9688 72.2645L18.4147 77.0537L10.0758 77.048L3.22792 73.8122L0.151635 67.5789L0.147177 61.7055Z" fill="#EB5E60"/>
<path d="M66.946 47H82V58H58.205H37V47H42.018H66.946Z" fill="#F1BF60"/>
<path d="M95.7926 83.4983L99 79.0627V31.9059V28.1707L95.7926 23.385L91.3687 20.5836L88.4931 20L85.0645 20.5836L79.2028 23.385L75.9954 28.1707L75 34.2404V43.2282V48.9477V56.885V65.0557V70.892V79.0627L77.212 83.4983L80.8618 85.716L85.0645 87H91.5899L95.7926 83.4983Z" fill="#578A6E"/>
<path d="M39.3456 83.9492L42 79.021V31.6165V27.8616L37.1336 23.0508L31.3825 20L24.0829 21.2907L18.9954 26.6883L18 29.6217V42.9982V48.7478V56.7268V64.9405V70.8074V79.021L19.106 82.8932L22.5346 85.7093L28.0645 87H34.5899L39.3456 83.9492Z" fill="#578A6E"/>
<path d="M63.9604 58H75V64H57.5504H42V58H45.6799H63.9604Z" fill="#F1BF60"/>
<rect x="146" y="98" width="47" height="36" fill="#C4C4C4"/>
<rect x="146" width="45" height="31" fill="#C4C4C4"/>
<rect x="133.5" y="29.5" width="70" height="70" rx="6.5" fill="#F1BF60" stroke="black" stroke-width="3"/>
<rect x="139" y="37" width="57" height="57" rx="3" fill="#F1BF60"/>
<rect x="139" y="37" width="57" height="57" rx="3" fill="black"/>
<rect x="146" y="43" width="45" height="44" rx="3" fill="white"/>
<path d="M149 67.6667H154.712C155.083 67.6667 155.424 67.461 155.597 67.1324L159.217 60.2539C159.615 59.4985 160.715 59.5565 161.031 60.3497L168.719 79.6519C169.094 80.5937 170.471 80.4439 170.635 79.4435L174.45 56.1424C174.609 55.1765 175.917 54.9895 176.339 55.8724L181.71 67.0983C181.877 67.4456 182.228 67.6667 182.613 67.6667H189" stroke="black" stroke-width="3" stroke-linecap="round"/>
</svg>
